<svg width="29" height="16" viewBox="0 0 29 16" fill="none" xmlns="http://www.w3.org/2000/svg">
<path d="M18.877 3.87646C19.2238 3.84685 19.5484 3.89216 19.8672 4.07666C20.2831 4.31739 20.5988 4.7764 20.7402 5.28369C20.8926 5.8306 20.8347 6.39852 20.6094 6.90479C20.3375 7.51566 19.8469 7.96084 19.2852 8.16064C18.1872 8.55097 17.1861 7.98026 16.2666 7.3999C16.1654 7.56253 16.0609 7.72511 15.9326 7.8667L15.9316 7.86768C15.4508 8.39004 14.753 8.5448 14.1396 8.25928C13.7751 8.09173 13.4342 7.79599 13.1211 7.50146L12.8174 7.2124C12.3377 6.74738 11.8526 6.28986 11.3623 5.84033C11.0064 5.51669 10.6554 5.18958 10.2617 4.9458C9.95435 4.7555 9.62325 4.60394 9.28223 4.59521C8.7655 4.58217 8.25805 4.84369 7.88477 5.26709C7.15958 6.08997 7.12515 7.11027 7.1123 8.23584L7.11133 8.3335L7.0332 8.27588C6.7894 8.0955 6.57619 7.90267 6.32715 7.75049C5.91647 7.49953 5.40682 7.31671 4.9668 7.48389C4.73466 7.57222 4.52718 7.74711 4.41797 8.00635C4.34108 8.18907 4.31764 8.39156 4.36035 8.58447C4.40608 8.35677 4.49484 8.12306 4.68848 7.99072C4.8278 7.89566 5.01541 7.8657 5.17285 7.9165C5.29453 7.95583 5.39462 8.04134 5.46777 8.15088L5.53223 8.26807C5.61894 8.46692 5.63345 8.69873 5.57227 8.90967C5.51208 9.11732 5.38243 9.29075 5.20996 9.38818L5.20898 9.38721C5.00651 9.50328 4.75354 9.50735 4.5459 9.41748C4.283 9.30367 4.13212 9.06732 4.02246 8.80029C3.5881 9.04706 3.06475 9.28486 2.5957 9.41162C1.97767 9.57864 1.38679 9.53497 0.837891 9.12549C0.414519 8.80957 0.0964403 8.32204 -0.0107422 7.74463C-0.114413 7.18603 -0.00726582 6.61866 0.254883 6.14209C0.489369 5.71586 0.852881 5.35846 1.29395 5.24854C1.61643 5.16822 2.05248 5.21672 2.33594 5.43701C2.66527 5.69315 2.89267 6.03713 2.9707 6.49756L2.99512 6.67529C3.03262 7.09225 2.94353 7.51388 2.74121 7.86572V7.8667C2.58957 8.12736 2.36144 8.35011 2.07617 8.40479C1.87571 8.44306 1.67191 8.3967 1.50098 8.27686L1.42969 8.22119C1.26203 8.07352 1.16596 7.84958 1.14453 7.61377C1.11506 7.28792 1.27978 7.00804 1.43848 6.78271L1.52539 6.83057C1.47138 6.95974 1.42927 7.08782 1.38867 7.2251C1.36957 7.36973 1.35954 7.49455 1.39062 7.63135C1.43083 7.80823 1.53239 7.93121 1.66895 8.01807C1.80616 8.10528 1.95229 8.13283 2.0957 8.07861C2.29085 8.00473 2.44291 7.80452 2.53809 7.57959L2.58496 7.45459C2.68113 7.15851 2.68629 6.83047 2.59766 6.52783V6.52686C2.50411 6.21513 2.32579 5.98058 2.07422 5.84229C1.82262 5.70402 1.50928 5.70003 1.24805 5.81396C0.941475 5.94776 0.698524 6.24789 0.5625 6.60303C0.407271 7.00862 0.389209 7.45078 0.525391 7.86572C0.665634 8.293 0.940432 8.60669 1.29395 8.78955C1.71427 9.00696 2.16911 8.98027 2.62598 8.8501C3.07469 8.72218 3.51631 8.49745 3.92383 8.31396C3.94461 8.07044 4.01888 7.81545 4.14355 7.61572C4.35405 7.2786 4.68383 7.09059 5.0293 7.03174C5.65093 6.92592 6.27241 7.19018 6.76953 7.59717C6.76173 6.94006 6.83528 6.27637 7.10645 5.68311C7.41979 4.99689 7.95434 4.48176 8.59473 4.25537L8.72461 4.21631C9.36708 4.04479 9.93595 4.25471 10.4541 4.60889C11.0035 4.9845 11.5087 5.53184 11.9883 5.96533C12.3502 6.2924 12.7329 6.59131 13.1113 6.89697C13.4208 7.14698 13.7181 7.40945 14.043 7.61768C14.386 7.8375 14.7424 7.93682 15.1143 7.80713C15.4738 7.68174 15.708 7.39227 15.8906 7.0083C15.4535 6.76904 14.9575 6.39898 14.6562 5.95361C14.5321 5.77003 14.425 5.52938 14.4551 5.27686C14.476 5.10141 14.562 4.95678 14.6807 4.85205C14.8895 4.66785 15.1641 4.62507 15.4111 4.67236H15.4102C15.7366 4.73099 16.0267 4.94203 16.2158 5.25244C16.5222 5.75567 16.5103 6.35203 16.4287 6.91846C16.8964 7.22849 17.4115 7.52784 17.9277 7.6792C18.4796 7.84095 19.0401 7.80644 19.5303 7.4585C19.9045 7.19278 20.2021 6.7807 20.3047 6.27686C20.3891 5.86193 20.3161 5.44966 20.125 5.08643C19.9418 4.73848 19.6637 4.49048 19.3291 4.40088C18.9903 4.31026 18.6032 4.38343 18.3086 4.604C18.1065 4.75542 17.9584 4.96959 17.9062 5.24756C17.8654 5.46569 17.8853 5.69436 17.9717 5.88916L18.0127 5.97021L18.085 6.07764C18.1635 6.17748 18.2608 6.2522 18.3672 6.27686C18.3738 6.27839 18.3786 6.27896 18.3867 6.28076L18.4492 6.29443L18.4209 6.35107L18.415 6.36475L18.4033 6.38818L18.377 6.39209C18.2088 6.41736 18.059 6.3695 17.9238 6.25635C17.7247 6.08943 17.6107 5.82902 17.5752 5.55811C17.5278 5.19643 17.6108 4.83946 17.7979 4.54736C18.0588 4.14011 18.4571 3.94355 18.873 3.87744L18.877 3.87646ZM5.02246 8.18994C4.79549 8.28528 4.63027 8.4518 4.44141 8.64697L4.39453 8.69482C4.45788 8.87067 4.56989 9.0294 4.71191 9.10205C4.82858 9.16172 4.96246 9.1666 5.07715 9.10791L5.15625 9.05615C5.23 8.99545 5.28764 8.90802 5.31934 8.8042L5.33984 8.71045C5.35332 8.6148 5.34437 8.51651 5.30762 8.43213C5.24705 8.29309 5.15004 8.2359 5.02246 8.18994ZM15.1094 5.05225C14.982 5.07848 14.8613 5.10858 14.7979 5.21729C14.7559 5.2893 14.7501 5.39014 14.7676 5.48389C14.8044 5.68031 14.9408 5.86447 15.1104 6.02783C15.2792 6.19043 15.475 6.32749 15.623 6.43213L15.8857 6.61182L16.0029 6.68896C16.0766 6.27763 16.0621 5.88201 15.8701 5.51904C15.7496 5.29136 15.5699 5.12085 15.3525 5.06494C15.3119 5.0545 15.2705 5.04781 15.2295 5.04541L15.1094 5.05225Z" fill="#FAFAFA" stroke="white" stroke-width="0.1"/>
<path d="M14.3227 11.0338C14.4007 11.0321 14.4698 11.0414 14.5453 11.0914C14.6466 11.1584 14.7363 11.2842 14.767 11.4146H14.768C14.8028 11.5626 14.7637 11.7136 14.7075 11.8502C14.6791 11.919 14.6452 11.9867 14.6127 12.0494C14.594 12.0854 14.5769 12.1202 14.56 12.1529C14.5846 12.1528 14.6096 12.1516 14.6342 12.1529C14.7022 12.1565 14.7897 12.1645 14.852 12.2437L14.8666 12.2633L14.8608 12.2877L14.851 12.3248L14.8481 12.3385L14.8383 12.3473C14.7118 12.4773 14.544 12.4719 14.4096 12.4693C14.3689 12.5929 14.3097 12.7478 14.2426 12.9166C14.1686 13.1029 14.0861 13.3079 14.0131 13.5133C13.9401 13.7188 13.8772 13.9237 13.8403 14.108C13.8032 14.2934 13.7942 14.4531 13.8246 14.5719C13.8353 14.6134 13.8485 14.6426 13.8657 14.6656C13.8812 14.6864 13.9017 14.7042 13.9291 14.7223C13.9832 14.7257 14.0285 14.7073 14.0707 14.6724C14.1173 14.6339 14.1586 14.5763 14.1996 14.5094C14.22 14.4762 14.2393 14.4416 14.2592 14.4068C14.279 14.3723 14.3 14.3379 14.3207 14.3053C14.3613 14.2414 14.4078 14.1787 14.4672 14.1432C14.4844 14.1329 14.5059 14.1205 14.5307 14.1187C14.5435 14.1179 14.556 14.1194 14.5668 14.1226L14.5952 14.1344L14.6098 14.1412L14.6186 14.1549C14.6616 14.2302 14.6639 14.3063 14.6498 14.3853C14.6268 14.5142 14.564 14.6524 14.4858 14.774C14.4074 14.8957 14.3108 15.0052 14.2182 15.0758C14.0572 15.1983 13.8781 15.2252 13.6938 15.1754C13.4931 15.1211 13.3351 14.9848 13.2221 14.7994C13.136 14.9131 13.0435 15.0253 12.9223 15.1041C12.7595 15.2097 12.5781 15.2295 12.3998 15.1637C12.2172 15.096 12.0596 14.9436 11.976 14.7447C11.8706 14.4938 11.8992 14.2151 11.9702 13.9508C12.0408 13.6876 12.1573 13.4255 12.2338 13.2154C12.284 13.0776 12.3249 12.9364 12.3657 12.7935C12.3208 12.8254 12.2775 12.8614 12.2358 12.901C12.0504 13.0767 11.833 13.3725 11.6489 13.6959C11.4646 14.0195 11.3172 14.3657 11.269 14.6402C11.2584 14.7009 11.2602 14.7679 11.2641 14.8414C11.2679 14.9131 11.2731 14.9923 11.2661 15.067L11.2651 15.0758L11.2612 15.0846C11.2471 15.1119 11.2307 15.1449 11.1928 15.1695C11.1377 15.205 11.0783 15.2004 11.0297 15.1861C10.8804 15.1421 10.7584 15.0127 10.6743 14.8765C10.6458 14.9178 10.616 14.9601 10.5815 14.9967L10.5805 14.9957C10.4512 15.1332 10.2768 15.2034 10.0991 15.1842V15.1832C9.86422 15.1593 9.68641 15.0074 9.54535 14.8209C9.42091 15.0007 9.24638 15.1798 9.01996 15.2008C8.82628 15.2186 8.6394 15.1293 8.50336 14.983C8.31564 14.7812 8.26996 14.5298 8.25531 14.2662C8.16114 14.3124 8.06642 14.3557 7.97308 14.3971C7.88091 14.5627 7.77401 14.714 7.64593 14.8463C7.40576 15.0941 7.1221 15.2382 6.78949 15.2096C6.57912 15.1914 6.37123 15.0989 6.23187 14.9C6.06506 14.6617 6.04482 14.3392 6.06586 14.0592C6.10547 13.5335 6.34994 12.962 6.70257 12.6226C6.95078 12.3838 7.21763 12.2838 7.52191 12.2906L7.65472 12.3004L7.66546 12.3014L7.64886 12.3502L7.66546 12.3033C7.87293 12.3763 8.04285 12.5065 8.15277 12.732C8.32034 13.0759 8.27828 13.4384 8.2016 13.7848C8.49979 13.4987 8.57633 13.2117 8.76703 12.7613C8.80173 12.6794 8.84594 12.5734 8.90277 12.481C8.95884 12.3899 9.0329 12.3021 9.13128 12.2682C9.19506 12.2462 9.25326 12.2572 9.30707 12.2945L9.35296 12.3355C9.39599 12.3818 9.4296 12.4431 9.4555 12.5035C9.49077 12.5858 9.51546 12.6751 9.53168 12.7447L9.53461 12.7564L9.53168 12.7682C9.48388 12.9635 9.39898 13.1347 9.32562 13.3072C9.19486 13.6146 9.05798 13.9258 8.95843 14.2447C8.94044 14.3023 8.92183 14.3708 8.91449 14.4381C8.9071 14.506 8.91111 14.5678 8.93304 14.6148C8.9522 14.6557 9.0025 14.6928 9.04339 14.7037C9.0693 14.7106 9.10655 14.7016 9.15863 14.651C9.20942 14.6015 9.26432 14.5224 9.32171 14.4195C9.43625 14.2141 9.55364 13.9266 9.66742 13.6285C9.78047 13.3323 9.89 13.023 9.98578 12.7828C10.0338 12.6625 10.0799 12.5572 10.1215 12.4771C10.1422 12.4373 10.1621 12.4022 10.1821 12.3746C10.2013 12.348 10.2241 12.3233 10.2494 12.3092C10.3066 12.2775 10.3664 12.2817 10.4194 12.3062C10.5054 12.3461 10.5685 12.4279 10.6157 12.5123C10.6634 12.5978 10.6999 12.6947 10.7289 12.7711L10.7348 12.7857L10.7299 12.8014C10.6642 13.0518 10.5668 13.2933 10.4653 13.5299C10.3633 13.7675 10.2576 13.9994 10.1752 14.2369C10.156 14.2923 10.1297 14.3682 10.1137 14.443C10.0972 14.5204 10.0952 14.5841 10.1137 14.6226C10.1282 14.6527 10.1539 14.6734 10.1811 14.6832C10.2481 14.7071 10.313 14.6863 10.3715 14.6236C10.4897 14.497 10.5891 14.2867 10.6772 14.0553C10.7209 13.9405 10.7614 13.8223 10.8002 13.7096C10.8389 13.5971 10.8758 13.4887 10.9125 13.3961C10.9548 13.2896 11.0007 13.1846 11.0453 13.0807C11.09 12.9766 11.1341 12.8733 11.1743 12.7682C11.1855 12.7386 11.1968 12.6995 11.2094 12.6549C11.2217 12.6113 11.2346 12.5626 11.2504 12.5162C11.2663 12.4697 11.2861 12.4229 11.31 12.3834C11.3336 12.3445 11.3643 12.3076 11.4067 12.2877C11.4617 12.262 11.5209 12.2702 11.5678 12.2906C11.7187 12.3564 11.8082 12.5116 11.8676 12.6549L11.8715 12.6646V12.6754C11.8702 12.7065 11.8644 12.7371 11.8618 12.7672C11.924 12.6896 11.9907 12.6117 12.0629 12.5416C12.1784 12.4295 12.3088 12.3329 12.4516 12.2818C12.592 12.2317 12.7474 12.2456 12.8774 12.3316C13.0386 12.4386 13.083 12.614 13.0698 12.8082C13.0565 13.0016 12.9853 13.226 12.9037 13.4488C12.821 13.675 12.7274 13.8981 12.6616 14.1012C12.6289 14.2019 12.6041 14.2955 12.5912 14.3785C12.5784 14.4618 12.5789 14.5313 12.5932 14.5865C12.6068 14.6391 12.6324 14.6744 12.6694 14.6939C12.6841 14.7017 12.6947 14.703 12.7036 14.7027C12.7133 14.7024 12.7255 14.6993 12.7436 14.691C12.8165 14.6575 12.89 14.575 12.9604 14.4527C13.0297 14.3322 13.0926 14.1805 13.1489 14.0191C13.2622 13.6943 13.3453 13.344 13.4077 13.1373C13.4754 12.9178 13.5485 12.7007 13.6264 12.4859C13.61 12.4857 13.5933 12.4858 13.5776 12.4849C13.5357 12.4827 13.4896 12.4769 13.4477 12.4605C13.3449 12.4204 13.2627 12.3158 13.2211 12.2144C13.2125 12.1933 13.2039 12.1717 13.2006 12.148C13.1972 12.1228 13.1996 12.0982 13.2075 12.0709L13.2231 12.0172L13.2748 12.0387L13.3051 12.0504C13.3162 12.0495 13.3279 12.049 13.3393 12.0494C13.358 12.0502 13.38 12.0524 13.4028 12.0553C13.4482 12.061 13.5018 12.0705 13.5551 12.0807C13.6395 12.0967 13.7211 12.1136 13.7768 12.1246C13.8292 11.9633 13.8983 11.7658 13.9789 11.5777C14.0664 11.3739 14.1705 11.1757 14.2875 11.0494L14.3012 11.0338H14.3227ZM7.56097 12.7213C7.43015 12.7816 7.30646 12.9098 7.19769 13.068C7.0848 13.2321 6.99188 13.4213 6.92718 13.5797C6.87093 13.7174 6.79934 13.9142 6.75336 14.1139C6.70692 14.3155 6.6885 14.5117 6.73089 14.6529C6.74558 14.7018 6.77322 14.7463 6.80316 14.7662C6.81788 14.7759 6.83521 14.7787 6.86175 14.7818C7.064 14.6554 7.16869 14.4482 7.29437 14.2076C7.2788 14.1705 7.25911 14.1266 7.2475 14.0816C7.23318 14.026 7.22739 13.9617 7.25238 13.899C7.26298 13.8725 7.27671 13.8521 7.29632 13.8365C7.31358 13.8229 7.33403 13.8144 7.34808 13.8082L7.36566 13.8014L7.38324 13.8062C7.40361 13.8125 7.42309 13.8203 7.44281 13.8277C7.45345 13.8133 7.46718 13.7926 7.47992 13.7623C7.49887 13.7171 7.51644 13.6606 7.53168 13.6012C7.56213 13.4822 7.5828 13.3565 7.59515 13.2906C7.60968 13.213 7.62799 13.1089 7.63324 13.0074C7.63859 12.9035 7.62989 12.8117 7.59906 12.7545C7.5916 12.7407 7.58527 12.7358 7.57953 12.732C7.57575 12.7295 7.57099 12.7266 7.5639 12.7232C7.563 12.7228 7.56203 12.7218 7.56097 12.7213Z" fill="#FAFAFA" stroke="white" stroke-width="0.1"/>
<path d="M3.84661 10.8576C3.91065 10.8447 3.97861 10.8672 4.03314 10.8966C4.0891 10.9269 4.14028 10.969 4.17669 11.006C4.30797 11.1393 4.39228 11.2872 4.40032 11.4972C4.41397 11.8548 4.32123 12.2444 4.26556 12.5822C4.20912 12.9139 4.15698 13.2467 4.10833 13.5802C4.17721 13.4653 4.26434 13.3241 4.35931 13.1642C4.52754 12.881 4.72741 12.5454 4.9306 12.2228C5.13369 11.9004 5.34033 11.5891 5.52044 11.3546C5.61026 11.2377 5.69476 11.1388 5.76947 11.0665C5.80677 11.0305 5.84312 11.0002 5.87689 10.9777C5.91005 10.9556 5.94442 10.9381 5.97845 10.9327C6.07225 10.9183 6.15766 10.9668 6.21771 11.0236C6.3423 11.1417 6.41834 11.3127 6.4599 11.4816L6.4638 11.4943L6.4599 11.507C6.421 11.6461 6.36883 11.7797 6.31439 11.9103C6.25951 12.0419 6.20263 12.169 6.15325 12.299C5.90925 12.9412 5.65898 13.6104 5.48919 14.2804C5.43488 14.4948 5.37563 14.7357 5.41107 14.9454C5.41294 14.9564 5.41808 14.9716 5.42572 14.9923C5.43273 15.0113 5.4419 15.0351 5.44915 15.0577C5.45643 15.0805 5.46301 15.1071 5.4638 15.1329C5.46456 15.1594 5.45891 15.1903 5.43646 15.216C5.43148 15.2216 5.42202 15.2339 5.41009 15.2433C5.33681 15.3007 5.24824 15.2783 5.19329 15.2579C5.05329 15.2059 4.93911 15.1162 4.87103 14.9562C4.81099 14.8149 4.79523 14.6426 4.80462 14.4591C4.81407 14.2749 4.84904 14.0748 4.89544 13.8771C4.94185 13.6793 5.00009 13.4821 5.05462 13.3019C5.09339 13.1738 5.1277 13.0541 5.15814 12.9493C4.9386 13.3177 4.72146 13.6857 4.51654 14.0646C4.45091 14.1859 4.38957 14.3157 4.32415 14.4464C4.2593 14.576 4.19093 14.7054 4.11322 14.8214C4.07619 14.8767 4.03596 14.9347 3.94915 14.9484C3.89601 14.9567 3.83825 14.947 3.78607 14.9279C3.73356 14.9086 3.68267 14.8783 3.64447 14.84C3.56446 14.7596 3.51672 14.6537 3.48822 14.5441C3.45968 14.4343 3.44928 14.3171 3.44525 14.2111C3.42546 13.6902 3.50482 13.1865 3.56927 12.6837C3.27765 13.2918 2.9803 13.8841 2.74212 14.5245C2.73364 14.5475 2.71859 14.603 2.70013 14.6769C2.68192 14.7498 2.66074 14.8376 2.64056 14.923C2.6204 15.0083 2.60122 15.0917 2.58587 15.1544C2.57825 15.1856 2.57164 15.2121 2.56634 15.2316C2.56377 15.241 2.56161 15.2494 2.5595 15.256C2.55845 15.2592 2.55691 15.2635 2.5556 15.2667C2.55498 15.2683 2.55182 15.2762 2.54583 15.2833C2.53923 15.291 2.52968 15.297 2.52532 15.2999C2.51937 15.3039 2.51234 15.3089 2.50579 15.3126C2.49469 15.3189 2.47793 15.3277 2.46575 15.3312C2.41501 15.3456 2.36443 15.3355 2.3222 15.3175C2.2799 15.2995 2.24148 15.2712 2.21087 15.2443C2.095 15.1422 2.01337 14.9991 1.99896 14.8273C1.98122 14.6152 2.01341 14.4038 2.06927 14.2062C2.17023 13.8492 2.46402 13.1907 2.78118 12.5558C3.09833 11.9209 3.44295 11.3017 3.6474 11.0226C3.66967 10.9922 3.69648 10.9552 3.72747 10.9249C3.75853 10.8947 3.79784 10.8674 3.84661 10.8576Z" fill="#FAFAFA" stroke="white" stroke-width="0.1"/>
<path d="M18.7622 10.8997C18.9676 10.8839 19.1701 10.8869 19.3764 10.9339C19.7149 11.011 20.0533 11.1921 20.2524 11.5452C20.3744 11.7617 20.4317 12.0255 20.3803 12.2845C20.3096 12.6403 20.0798 12.8543 19.8422 13.0325C20.0206 13.1299 20.1739 13.2809 20.2495 13.5042C20.3309 13.7449 20.286 13.9982 20.1987 14.2161C20.0034 14.7035 19.6165 15.0256 19.1938 15.1985C18.6402 15.4249 17.8917 15.4314 17.353 15.1253C17.1354 15.0016 16.9112 14.7886 16.8325 14.5032C16.8186 14.4527 16.806 14.3801 16.8032 14.3079C16.8005 14.2379 16.8067 14.158 16.8403 14.1009C16.8522 14.0806 16.8653 14.0611 16.8862 14.0482C16.9057 14.0362 16.9289 14.0324 16.9438 14.0296L16.9594 14.0267L16.9731 14.0335C17.0065 14.0487 17.0379 14.0742 17.0659 14.1019C17.0941 14.1298 17.1217 14.1627 17.1479 14.1956C17.2024 14.2642 17.2488 14.3294 17.2905 14.3714C17.5662 14.649 17.8885 14.7576 18.2485 14.7259C18.6574 14.6898 19.1212 14.5213 19.3891 14.1517C19.5007 13.9977 19.579 13.8018 19.561 13.6028C19.5506 13.4885 19.508 13.398 19.4331 13.3314C19.3207 13.2316 19.1911 13.1965 19.0532 13.1937C18.9224 13.191 18.7872 13.2168 18.6538 13.2425C18.5321 13.5861 18.4198 13.9355 18.3051 14.2835C18.2931 14.3347 18.2784 14.3947 18.2563 14.4505C18.2337 14.5075 18.2015 14.5655 18.1518 14.6058C18.0783 14.6654 17.9956 14.6611 17.9252 14.6448C17.8312 14.6231 17.7469 14.5695 17.6938 14.471C17.6058 14.3073 17.614 14.0789 17.6459 13.9114C17.6758 13.7548 17.8286 13.2942 17.9887 12.845C18.1488 12.3962 18.3201 11.9471 18.3911 11.8109C18.4343 11.728 18.4923 11.6388 18.5727 11.5823C18.6778 11.5087 18.8258 11.4716 18.9526 11.511C19.0195 11.5318 19.0841 11.5766 19.1166 11.6566C19.1438 11.7234 19.1409 11.7957 19.1303 11.8577C19.1042 12.0114 19.0344 12.2013 18.9604 12.388C18.8991 12.5427 18.8358 12.6961 18.7885 12.8323C19.0547 12.7618 19.3172 12.6706 19.5268 12.4778C19.6467 12.3675 19.7397 12.2206 19.7543 12.0443C19.766 11.9025 19.7203 11.767 19.6391 11.6614C19.5201 11.5071 19.3409 11.4303 19.1635 11.4212C18.7386 11.3996 18.2824 11.6696 17.9663 12.0091C17.6989 12.2961 17.393 12.7538 17.3461 13.178C17.3407 13.2274 17.3469 13.2766 17.354 13.3304C17.3608 13.3822 17.3695 13.4408 17.3637 13.4993C17.3613 13.5241 17.3549 13.5448 17.3413 13.5638C17.335 13.5724 17.3284 13.58 17.3227 13.5853C17.32 13.5878 17.3165 13.5898 17.3139 13.5921C17.3112 13.5945 17.3089 13.5973 17.3061 13.5999L17.2944 13.6107L17.2788 13.6126C17.1891 13.6242 17.1294 13.5799 17.0756 13.5325C16.9147 13.3904 16.8095 13.149 16.7827 12.9261C16.7372 12.5491 16.8689 12.1941 17.0551 11.9046C17.4685 11.2621 18.1137 11.0057 18.7583 10.8997L18.7622 10.8987V10.8997Z" fill="#FAFAFA" stroke="white" stroke-width="0.1"/>
<path d="M21.4746 10.8532C21.536 10.851 21.5971 10.8551 21.6621 10.8864C21.7694 10.9382 21.8657 11.036 21.9072 11.1667C21.9363 11.2582 21.935 11.351 21.915 11.4411C21.8823 11.5883 21.8243 11.7358 21.7607 11.8776C21.729 11.9484 21.6955 12.0185 21.6631 12.0866C21.6305 12.155 21.598 12.2222 21.5693 12.2868C21.4367 12.5831 21.3131 12.8847 21.1982 13.1911C21.1313 13.3702 21.029 13.6453 20.9599 13.9206C20.9254 14.0582 20.8998 14.1952 20.8906 14.319C20.8814 14.4434 20.889 14.5511 20.9189 14.6335C20.9262 14.6535 20.9391 14.6802 20.9541 14.7028C20.9705 14.7275 20.9835 14.7387 20.9892 14.7409C21.0178 14.7514 21.0579 14.7432 21.0967 14.7184C21.259 14.6147 21.3556 14.4574 21.4248 14.2721C21.4949 14.0843 21.5336 13.8776 21.5889 13.6715C21.6304 13.5165 21.7196 13.2221 21.8281 12.9499C21.8823 12.8138 21.9425 12.6815 22.0039 12.5749C22.0636 12.4712 22.1298 12.382 22.2012 12.3424C22.2612 12.3093 22.3318 12.3026 22.3974 12.3307C22.4841 12.368 22.5465 12.4465 22.5928 12.528C22.6395 12.6103 22.675 12.7041 22.7041 12.779L22.7109 12.7985L22.7031 12.817C22.6053 13.0339 22.4777 13.3104 22.3662 13.5915C22.2545 13.8731 22.1602 14.1566 22.125 14.3874C22.117 14.4393 22.1076 14.5038 22.1074 14.5651C22.1073 14.6282 22.1171 14.677 22.1387 14.7057C22.156 14.7287 22.1795 14.736 22.2158 14.7321C22.3857 14.7139 22.484 14.5808 22.5654 14.402C22.6059 14.3129 22.6387 14.2206 22.6758 14.1295C22.7118 14.041 22.7518 13.9541 22.8037 13.8893C22.8701 13.8064 22.9806 13.7357 23.0898 13.736H23.0908C23.1276 13.7362 23.1595 13.744 23.1885 13.7614C23.2025 13.7698 23.2149 13.7804 23.2265 13.7917L23.2588 13.8278L23.2656 13.8356L23.2676 13.8463C23.2883 13.9249 23.2721 14.0053 23.25 14.0758C23.2388 14.1114 23.2258 14.1469 23.2139 14.1794C23.2017 14.2126 23.1901 14.2429 23.1826 14.2711C23.1496 14.3956 23.1459 14.543 23.1982 14.6501C23.25 14.7558 23.3575 14.8107 23.4678 14.8493C23.5725 14.8257 23.6625 14.794 23.7246 14.7067C23.7812 14.6269 23.7883 14.5148 23.7549 14.3717C23.7216 14.2297 23.6516 14.0677 23.5693 13.8981C23.4882 13.7309 23.3932 13.553 23.3183 13.3893C23.2435 13.2255 23.1838 13.0658 23.1719 12.9284C23.1503 12.6814 23.2264 12.5029 23.3515 12.3229L23.3545 12.318C23.5269 12.1242 23.7466 12.0222 23.9863 12.0114C24.0917 12.0066 24.2158 12.0247 24.332 12.0661C24.4479 12.1074 24.5602 12.1728 24.6406 12.2643C24.7467 12.385 24.8058 12.5492 24.8066 12.7194C24.8076 12.8031 24.7959 12.8997 24.7705 12.9899C24.7452 13.0796 24.7051 13.1675 24.6474 13.2311C24.5968 13.287 24.526 13.3231 24.4482 13.3151C24.4141 13.3116 24.3762 13.2989 24.3428 13.2799C24.3095 13.2611 24.277 13.2333 24.2558 13.1969C24.2162 13.1287 24.2384 13.0522 24.2627 12.9958C24.2755 12.966 24.291 12.9363 24.3047 12.9108C24.319 12.8842 24.3313 12.8619 24.3389 12.8434C24.3592 12.7935 24.3693 12.7364 24.3818 12.6754C24.3717 12.6316 24.3643 12.591 24.3506 12.5563C24.3352 12.5176 24.3062 12.4828 24.2754 12.4616L24.2441 12.445C24.205 12.4312 24.1583 12.4407 24.1133 12.4684C24.0056 12.5347 23.9583 12.6472 23.918 12.7936C23.9655 12.9257 24.02 13.0547 24.0879 13.1706C24.1421 13.2632 24.2027 13.354 24.2637 13.4469C24.3241 13.5392 24.3845 13.6339 24.4365 13.7331C24.5411 13.9324 24.6129 14.1524 24.5849 14.4167C24.5596 14.6573 24.4515 14.8769 24.2842 15.026C24.0371 15.2503 23.6963 15.3176 23.3965 15.2643C23.1196 15.2151 22.9164 15.0601 22.75 14.821C22.6866 14.911 22.6181 14.9967 22.5322 15.0641C22.3862 15.1788 22.2074 15.2381 22.0244 15.192C21.8176 15.14 21.6748 14.9823 21.5654 14.8014C21.5238 14.8667 21.4802 14.9306 21.4316 14.9909C21.3246 15.1234 21.1851 15.2184 21.0146 15.2194C20.8097 15.2204 20.6105 15.0956 20.4775 14.9323C20.3185 14.7369 20.2657 14.474 20.2676 14.2223C20.2699 13.9248 20.3255 13.6252 20.3994 13.3454C20.4655 13.0951 20.6529 12.5596 20.8584 12.0475C20.9613 11.7912 21.0699 11.5396 21.1699 11.3317C21.269 11.1257 21.3628 10.957 21.4385 10.8708L21.4521 10.8542L21.4746 10.8532Z" fill="#FAFAFA" stroke="white" stroke-width="0.1"/>
<path d="M27.1992 5.71535C27.4893 5.66673 27.8267 5.75077 28.082 5.90089C28.5009 6.14718 28.8197 6.65131 28.9609 7.15675C29.1099 7.67744 29.0703 8.24659 28.8515 8.73293C28.6006 9.29683 28.1484 9.72066 27.6289 9.90871C27.155 10.0802 26.6605 10.0161 26.1875 9.85011C25.735 9.69125 25.297 9.43714 24.9092 9.19972C24.8867 9.26909 24.8646 9.33968 24.8379 9.40675C24.7276 9.68344 24.5279 9.93471 24.2695 10.0415C24.0936 10.1142 23.8768 10.1223 23.6943 10.0484L23.6181 10.0112C23.4455 9.91053 23.3178 9.73238 23.2636 9.52101L23.2353 9.35597C23.2208 9.18981 23.2485 9.02084 23.3164 8.87062L23.3535 8.79738C23.4473 8.6337 23.5895 8.51173 23.7568 8.45753C24.0732 8.35354 24.3524 8.48717 24.6064 8.64699C24.5829 8.52104 24.5469 8.4008 24.4844 8.30031C24.2844 7.97941 23.967 7.89151 23.6191 7.90675C23.2689 7.92214 22.8997 8.04179 22.6094 8.12453C22.5901 8.13001 22.5656 8.1387 22.5371 8.14894C22.5092 8.15894 22.4775 8.17002 22.4463 8.18019C22.4151 8.19033 22.3822 8.19967 22.3515 8.20558C22.3216 8.21133 22.2889 8.21468 22.2597 8.20949L22.1699 8.19386L22.2314 8.12648C22.264 8.09146 22.3136 8.06337 22.3574 8.04152C22.3799 8.03028 22.4031 8.01994 22.4238 8.01027C22.445 8.00036 22.4642 7.9912 22.4795 7.98293C22.9156 7.74704 23.4103 7.49715 23.9179 7.52394C24.0937 7.53321 24.2458 7.57429 24.3838 7.65187C24.5215 7.7294 24.643 7.84224 24.7588 7.99171L24.7617 7.99562C24.8973 8.21432 24.9455 8.45107 25.0078 8.69093C25.3446 8.9147 25.7738 9.14549 26.2138 9.29054C26.6612 9.43797 27.1125 9.49532 27.4873 9.37648C27.8675 9.2579 28.1942 8.96519 28.3916 8.56007C28.5712 8.18999 28.6237 7.77761 28.5254 7.36671C28.4259 6.9512 28.194 6.57777 27.874 6.37355H27.873C27.6494 6.22933 27.3913 6.18387 27.1445 6.24269L27.039 6.27492C26.7732 6.37011 26.5617 6.57866 26.4297 6.8716C26.2866 7.19096 26.256 7.56391 26.3457 7.90968L26.375 8.00441C26.4518 8.22359 26.5855 8.41756 26.7607 8.52003C26.9012 8.60218 27.0603 8.60753 27.2099 8.5464C27.3502 8.48894 27.4695 8.37434 27.5312 8.21242C27.6352 7.93944 27.543 7.67295 27.4541 7.39308L27.4316 7.32277L27.5049 7.32863L27.5195 7.32961L27.541 7.33058L27.5547 7.34718C27.6709 7.48985 27.76 7.7136 27.7861 7.90382C27.8162 8.12328 27.7786 8.35347 27.6631 8.53761C27.538 8.73687 27.3433 8.86289 27.1338 8.89796C26.8798 8.94046 26.6458 8.85596 26.4492 8.68019C26.1748 8.43489 25.9987 8.04084 25.958 7.64796C25.9093 7.17785 26.0029 6.70189 26.2597 6.32472C26.5006 5.9711 26.811 5.76645 27.1992 5.71632V5.71535ZM23.9834 8.78371C23.8324 8.80036 23.7094 8.84034 23.6142 8.97218C23.5461 9.06736 23.5121 9.192 23.5224 9.31789C23.5333 9.44968 23.5897 9.56903 23.6758 9.64894L23.7539 9.70461C23.8351 9.74791 23.9257 9.75488 24.0215 9.73683C24.0509 9.73099 24.0802 9.72393 24.1094 9.71632C24.3784 9.57579 24.4922 9.34333 24.6006 9.02003C24.3995 8.89927 24.2 8.79586 23.9834 8.78371Z" fill="#FAFAFA" stroke="white" stroke-width="0.1"/>
<path d="M22.3982 8.73802C22.3966 8.75506 22.3916 8.77095 22.3816 8.78587C22.3724 8.7994 22.3604 8.80971 22.3523 8.81615C22.2163 8.92403 22.0315 9.00239 21.8884 9.0681C21.0393 9.458 20.1125 9.68802 19.2097 9.80833C17.8865 9.98465 16.5575 9.97791 15.2331 9.98607C13.5549 9.99914 11.8762 9.99997 10.198 9.98802V9.98705L7.66772 9.98412C7.33233 9.98447 6.99697 9.97705 6.66186 9.96165C6.49999 9.95446 6.31984 9.95599 6.15111 9.91966L6.12963 9.91576L6.11791 9.8972C6.1096 9.88339 6.09874 9.86599 6.08959 9.84837C6.07373 9.81769 6.06582 9.78884 6.0642 9.75853C6.06265 9.72939 6.06701 9.70102 6.07299 9.67259L6.07494 9.6638L6.07983 9.65697C6.11323 9.60151 6.17559 9.56951 6.23998 9.55052C6.30615 9.53105 6.38494 9.5218 6.46264 9.51732C6.6148 9.50855 6.78668 9.51931 6.86108 9.5183L13.5281 9.47533L15.3406 9.48802C17.1529 9.50244 18.9643 9.48565 20.7478 9.11888C21.2831 9.00881 21.8071 8.85392 22.3328 8.68529L22.405 8.66283L22.3982 8.73802Z" fill="#FAFAFA" stroke="white" stroke-width="0.1"/>
<path d="M25.9571 12.0329C26.1304 12.0224 26.3004 12.0294 26.4718 12.112C26.6296 12.1882 26.7458 12.3119 26.8097 12.4978C26.8699 12.6718 26.868 12.8666 26.8038 13.0388C26.7669 13.1384 26.698 13.2555 26.589 13.2985C26.5134 13.3282 26.4302 13.3129 26.3653 13.2722C26.3437 13.2585 26.3206 13.2443 26.3019 13.2243C26.2818 13.2029 26.268 13.1774 26.2579 13.1442L26.255 13.1325L26.2569 13.1208C26.269 13.0555 26.2967 12.9991 26.3243 12.9489C26.353 12.8969 26.3803 12.8537 26.3995 12.8054C26.4305 12.7273 26.4437 12.6387 26.4191 12.5661C26.4049 12.5245 26.374 12.494 26.337 12.4772C26.2747 12.449 26.1959 12.454 26.1319 12.487C26.0717 12.5182 26.032 12.5706 26.0011 12.6423L25.9728 12.7204L25.9689 12.7302C26.0194 13.0011 26.175 13.2345 26.3253 13.4831C26.4751 13.7309 26.6187 13.9928 26.6134 14.3064C26.6088 14.5707 26.4908 14.8136 26.3292 14.988C26.0574 15.2813 25.741 15.2883 25.4132 15.2731H25.4025V15.2712C25.2244 15.2246 25.0533 15.1649 24.9064 15.0085V15.0075C24.7562 14.8482 24.6707 14.6243 24.6691 14.3903C24.6667 14.2037 24.7156 13.9924 24.8419 13.8532C24.9079 13.7806 25.0018 13.7263 25.1056 13.7351C25.157 13.7395 25.2105 13.7588 25.254 13.7946L25.2941 13.8356L25.2999 13.8435L25.3019 13.8522C25.3143 13.8957 25.3093 13.9445 25.2989 13.9899C25.2884 14.036 25.2708 14.0853 25.2521 14.1325C25.2427 14.1561 25.2333 14.1799 25.2237 14.2028C25.214 14.2262 25.2041 14.2494 25.1954 14.2712C25.1796 14.3109 25.167 14.3457 25.1603 14.3747C25.1642 14.3985 25.1683 14.4224 25.173 14.446C25.2038 14.5973 25.2786 14.7335 25.3878 14.8064C25.457 14.8525 25.5338 14.8654 25.6046 14.8386C25.7031 14.8012 25.7613 14.7069 25.8126 14.5837C25.7834 14.267 25.66 14.0144 25.5304 13.7683C25.4003 13.5213 25.2621 13.2764 25.2276 12.988C25.2024 12.7762 25.2531 12.5364 25.3683 12.3649C25.5136 12.1487 25.7402 12.0667 25.9523 12.0329L25.9571 12.0319V12.0329Z" fill="#FAFAFA" stroke="white" stroke-width="0.1"/>
<path d="M9.77482 6.12311C9.96319 6.13408 10.1415 6.18643 10.3207 6.2735C10.6982 6.45696 11.1294 6.79419 11.5385 7.1651C11.9482 7.53666 12.3393 7.94481 12.6361 8.27448C12.6524 8.29253 12.6752 8.31777 12.7026 8.34674C12.7296 8.37538 12.7602 8.40765 12.7895 8.44049C12.8186 8.47315 12.8471 8.50687 12.8705 8.53815C12.8931 8.56831 12.9142 8.60043 12.9242 8.62897L12.9652 8.74713L12.8539 8.69049C12.7791 8.65189 12.7048 8.59705 12.6342 8.54108C12.5605 8.48265 12.4975 8.42754 12.4311 8.37604C12.0549 8.08423 11.6877 7.77277 11.3197 7.47076C10.94 7.15909 10.543 6.81007 10.1156 6.62994C9.9412 6.55646 9.77786 6.52517 9.59904 6.55865L9.60001 6.55963L9.58244 6.56158L9.58341 6.56256C9.46411 6.60181 9.35669 6.66571 9.26798 6.7608L9.18595 6.86627C9.07311 7.04375 9.02387 7.26755 9.05119 7.48834V7.48932C9.08558 7.76661 9.24002 8.01839 9.43205 8.1817C9.59794 8.32278 9.79886 8.4032 9.99259 8.36237C10.1629 8.3263 10.3081 8.22021 10.4379 8.07819C10.5678 7.93607 10.6789 7.76204 10.7826 7.59479L10.8735 7.63385C10.8285 7.79866 10.7769 7.96214 10.7026 8.11627C10.5677 8.39586 10.3544 8.63871 10.0707 8.72272C9.78208 8.80815 9.48329 8.71522 9.24455 8.53912C8.96971 8.33637 8.74765 8.01946 8.67912 7.64069C8.61945 7.31041 8.68128 6.93455 8.84513 6.65436C9.01472 6.36445 9.28935 6.19517 9.57462 6.12701L9.58244 6.12604L9.77482 6.12311Z" fill="#FAFAFA" stroke="white" stroke-width="0.1"/>
<path d="M14.4849 0.778965L14.5376 0.814121L14.5571 0.827793L14.5591 0.851231C14.5877 1.21592 14.6028 1.57779 14.6343 1.93814C14.7848 1.78781 14.9449 1.66213 15.1196 1.54947L15.2818 1.444L15.1909 1.6149C15.0747 1.83159 14.9379 2.01215 14.7886 2.18912C15.064 2.191 15.3403 2.22008 15.6099 2.24283L15.6646 2.24771L15.6548 2.30143L15.6421 2.37662L15.6362 2.41471L15.5982 2.41861C15.3482 2.44409 15.1006 2.47141 14.853 2.50846C14.9061 2.58962 14.9599 2.66968 15.0152 2.75162C15.0846 2.85454 15.1535 2.96074 15.2124 3.07584L15.1372 3.13834C14.9578 3.00094 14.7906 2.85458 14.6245 2.69889C14.6158 3.12801 14.595 3.55253 14.5679 3.98014L14.5659 4.01529L14.5318 4.02506L14.4986 4.03482L14.4409 4.0524L14.4341 3.99186C14.4107 3.76283 14.4011 3.5303 14.3902 3.30045C14.3809 3.1058 14.3681 2.91291 14.3482 2.7233C14.2145 2.85766 14.0741 2.98278 13.9107 3.07682L13.7896 3.14713L13.8394 3.01627C13.9164 2.81327 14.0331 2.65775 14.1568 2.50748C13.8743 2.48152 13.5908 2.44833 13.3111 2.41666L13.2251 2.40689L13.2769 2.33658C13.289 2.32017 13.3026 2.30868 13.3169 2.30045C13.3302 2.29283 13.3431 2.28867 13.3491 2.28678C13.356 2.2846 13.3567 2.28402 13.357 2.28385C13.3571 2.28373 13.3581 2.2838 13.3589 2.28287C13.3599 2.28173 13.3607 2.27882 13.3628 2.27506L13.3736 2.2565L13.3941 2.25162C13.6444 2.18808 13.925 2.19111 14.1773 2.18814C14.0425 2.00675 13.9097 1.82996 13.7984 1.61686L13.7124 1.45279L13.8696 1.55143C14.0469 1.66283 14.1996 1.81196 14.3472 1.96061C14.3621 1.79123 14.3699 1.61969 14.3745 1.44596C14.3801 1.23689 14.3846 1.02485 14.4068 0.815098L14.4155 0.73209L14.4849 0.778965Z" fill="#FAFAFA" stroke="white" stroke-width="0.1"/>
<path d="M22.4615 4.03872C22.488 4.1061 22.5053 4.20608 22.5172 4.31802C22.5293 4.43137 22.5367 4.5626 22.5406 4.69399C22.5468 4.89967 22.5443 5.10992 22.5436 5.26235C22.681 5.13636 22.8203 5.02118 22.9752 4.9186L23.0475 4.98306C23.0437 4.99022 23.04 4.99623 23.0367 5.00259C22.9535 5.16288 22.8515 5.3096 22.7506 5.45181C22.8576 5.45754 22.9646 5.46413 23.0709 5.47524L23.4772 5.52309L23.5172 5.52798L23.5201 5.56899C23.5222 5.59178 23.5283 5.62705 23.5201 5.6647L23.5133 5.69692L23.4811 5.70278C23.3354 5.7318 23.1886 5.74312 23.0445 5.75259C22.9298 5.76013 22.8172 5.76777 22.7057 5.78091C22.8333 5.93625 22.9401 6.09759 23.0543 6.26333L22.985 6.33266C22.829 6.22432 22.6819 6.10811 22.5416 5.97427C22.5328 6.30638 22.5178 6.6382 22.4947 6.96938L22.4938 6.98306L22.486 6.9938L22.4459 7.05434L22.3805 7.152L22.3561 7.03677C22.2849 6.7035 22.2848 6.32857 22.2779 5.98598C22.1374 6.12611 21.9844 6.24168 21.8209 6.34048L21.7545 6.26821C21.872 6.09974 21.989 5.93165 22.111 5.76626C21.779 5.72477 21.4439 5.7049 21.107 5.67153L21.1041 5.57192C21.4337 5.51737 21.7656 5.4853 22.0983 5.47427C21.9798 5.31762 21.8769 5.13367 21.776 4.9772L21.8531 4.91372C21.9273 4.98687 22.0124 5.04833 22.1012 5.11098C22.1629 5.15448 22.226 5.19994 22.2877 5.24868C22.3005 5.07424 22.3006 4.89788 22.3092 4.71645C22.3121 4.65413 22.3182 4.59369 22.3248 4.53481C22.3315 4.4754 22.3389 4.41762 22.3434 4.35903C22.3468 4.31396 22.3453 4.26435 22.3463 4.20669C22.3472 4.1526 22.3505 4.09288 22.3678 4.04165L22.4117 3.91177L22.4615 4.03872Z" fill="#FAFAFA" stroke="white" stroke-width="0.1"/>
<path d="M22.7821 11.0392L22.8709 11.0588L22.9539 11.0959C23.033 11.1434 23.0965 11.2186 23.1366 11.3097C23.2036 11.4599 23.2099 11.6393 23.1668 11.7961C23.111 11.9988 22.9941 12.1382 22.8338 12.2316L22.8192 12.2394L22.8026 12.2375C22.7803 12.2349 22.7552 12.2324 22.7303 12.2267C22.629 12.2037 22.5235 12.1397 22.4452 12.0529L22.3768 11.9592C22.3061 11.8329 22.2844 11.6785 22.3153 11.5334C22.3648 11.2985 22.5041 11.1583 22.6668 11.0451L22.6786 11.0373L22.6922 11.0363C22.7225 11.0345 22.7524 11.0355 22.7821 11.0392Z" fill="#FAFAFA" stroke="white" stroke-width="0.1"/>
<path d="M5.80332 4.89967C5.85102 4.93696 5.86722 4.98956 5.88242 5.02467C5.96011 5.20419 6.0171 5.31217 6.09238 5.39283C6.16703 5.47277 6.26297 5.5295 6.42441 5.59986L6.50742 5.63599L6.43222 5.68775C6.28921 5.78477 6.17312 5.87031 6.07773 5.97681C5.98302 6.08259 5.90712 6.21076 5.84824 6.39381L5.82187 6.47584L5.76328 6.41236C5.73555 6.38202 5.71517 6.34187 5.69883 6.30494C5.68289 6.26894 5.6667 6.22618 5.65488 6.19752C5.54163 5.92304 5.38444 5.83436 5.14707 5.69166L5.06601 5.64381L5.15097 5.60377C5.3259 5.52198 5.42814 5.44443 5.50644 5.344C5.58636 5.24137 5.64414 5.11171 5.72617 4.9192L5.75156 4.85963L5.80332 4.89967Z" fill="#FAFAFA" stroke="white" stroke-width="0.1"/>
<path d="M17.1385 3.36687C17.1742 3.43107 17.2037 3.4897 17.2274 3.53289C17.2522 3.57816 17.274 3.61287 17.2977 3.64324C17.3435 3.70195 17.4024 3.74776 17.5282 3.80633L17.6327 3.85516L17.5262 3.89812C17.4944 3.91103 17.4627 3.92522 17.4315 3.94012C17.2796 4.01278 17.2109 4.14025 17.1424 4.32879L17.0975 4.45379L17.0487 4.32977C16.9976 4.19848 16.9506 4.1161 16.8915 4.05437C16.8323 3.99282 16.7573 3.94811 16.6434 3.89617L16.537 3.84734L16.6454 3.80437C16.6591 3.79886 16.6727 3.79252 16.6864 3.7868H16.6874C16.7898 3.74398 16.8556 3.69721 16.9071 3.63543C16.9598 3.57221 17.0007 3.49039 17.0487 3.37273L17.0877 3.27605L17.1385 3.36687Z" fill="#FAFAFA" stroke="white" stroke-width="0.1"/>
<path d="M11.5355 2.82526C11.5469 2.8392 11.5546 2.85464 11.5599 2.86726C11.5644 2.87775 11.571 2.89602 11.5736 2.90241C11.6143 3.00412 11.6509 3.06866 11.6957 3.12019C11.7406 3.17197 11.7966 3.21322 11.8802 3.26569L11.9418 3.30476L11.8841 3.3487C11.7927 3.41832 11.7302 3.47113 11.68 3.53425C11.6304 3.59681 11.5907 3.67198 11.5482 3.78815L11.5062 3.90241L11.4554 3.79206C11.3889 3.64827 11.3574 3.575 11.3119 3.51765C11.2684 3.46287 11.2103 3.42113 11.0824 3.35261L10.9994 3.30769L11.0824 3.26374C11.1801 3.21239 11.2495 3.16191 11.305 3.09772C11.3609 3.03322 11.4056 2.95213 11.4506 2.83796L11.4818 2.75886L11.5355 2.82526Z" fill="#FAFAFA" stroke="white" stroke-width="0.1"/>
<path d="M20.3022 3.37282C20.3823 3.44822 20.41 3.5171 20.4428 3.57204C20.4748 3.6255 20.5192 3.68319 20.642 3.75661L20.7202 3.80251L20.6391 3.84352C20.5475 3.8896 20.489 3.92943 20.4428 3.98024C20.3964 4.0313 20.3596 4.09709 20.3149 4.19997L20.2837 4.27126L20.2319 4.21461C20.2143 4.19546 20.1985 4.16994 20.185 4.1443C20.1713 4.11811 20.1584 4.08841 20.146 4.05934C20.1235 4.00676 20.1039 3.95797 20.0864 3.92165C20.0303 3.89964 19.9727 3.883 19.9116 3.86208L19.8071 3.82594L19.9038 3.77126C19.992 3.7209 20.0512 3.67609 20.0981 3.62086C20.1451 3.56549 20.1827 3.4957 20.2212 3.39137L20.2465 3.32106L20.3022 3.37282Z" fill="#FAFAFA" stroke="white" stroke-width="0.1"/>
<path d="M13.4113 2.25025L13.4884 2.25611L13.4503 2.32447C13.4405 2.34197 13.4285 2.35539 13.4142 2.36549C13.4004 2.37521 13.3868 2.37964 13.379 2.38209C13.3705 2.38479 13.3686 2.3857 13.3663 2.38697C13.3651 2.3877 13.3621 2.38965 13.3576 2.39576L13.341 2.41822L13.3136 2.41627C13.2229 2.41016 13.1336 2.40037 13.0441 2.38795L13.0451 2.28834C13.1017 2.28181 13.158 2.27072 13.2218 2.26099C13.283 2.25167 13.3481 2.24486 13.4113 2.25025Z" fill="#48464F" fill-opacity="0.980392" stroke="white" stroke-width="0.1"/>
<path d="M15.6126 2.24308C15.7153 2.25763 15.815 2.27404 15.9153 2.2841L15.9212 2.38273C15.8116 2.40563 15.7017 2.41202 15.596 2.41886L15.5335 2.42277L15.5442 2.36027L15.5569 2.28507L15.5647 2.23624L15.6126 2.24308Z" fill="#292837" fill-opacity="0.960784" stroke="white" stroke-width="0.1"/>
<path d="M23.4784 5.52328C23.5738 5.53856 23.6648 5.55493 23.7568 5.56137L23.7626 5.66098C23.6694 5.67879 23.5739 5.69704 23.4755 5.70395L23.4091 5.70883L23.4228 5.6434C23.4268 5.62502 23.4239 5.61196 23.4208 5.57797L23.415 5.51352L23.4784 5.52328Z" fill="#48464F" fill-opacity="0.984314" stroke="white" stroke-width="0.1"/>
<path d="M5.3984 12.548L5.29 12.8566L5.27047 12.9123L5.21969 12.8849L5.16012 12.8527L5.11227 12.8273L5.14157 12.7824C5.19879 12.6909 5.25493 12.5993 5.30856 12.506L5.3984 12.548Z" fill="#F7F7F8" fill-opacity="0.0235294" stroke="white" stroke-width="0.1"/>
<path d="M14.5302 0.677734C14.5412 0.734094 14.5509 0.790584 14.5585 0.848633L14.5731 0.958984L14.4813 0.896484L14.4286 0.861328L14.4032 0.84375L14.4071 0.813477C14.4135 0.766918 14.4215 0.722256 14.4325 0.675781L14.5302 0.677734Z" fill="#48464F" fill-opacity="0.945098" stroke="white" stroke-width="0.1"/>
</svg>
