<svg xmlns="http://www.w3.org/2000/svg" width="151" height="151" fill="#fafafa" xmlns:v="https://vecta.io/nano"><path d="M78.702 73.57l3.669 3.037c.845.636 1.846 1.106 2.622 1.828.87.808 1.565 1.806 2.346 2.697 1.103 1.258 2.439 2.372 3.808 3.331 1.053.737 2.132 1.429 3.295 1.979 1.557.737 4.065 1.331 5.27 2.48 1.047.998 1.153 2.512 1.999 3.641.541.723 1.316 1.254 1.929 1.916l2.638 3.106c1.109-.952 2.044-1.798 3.493-2.177 1.182 1.444 2.215 3.149 3.666 4.345 1.413 1.165 2.356.584 3.721 2.425 1.256 1.696 2.347 3.544 3.524 5.298 2.415 3.598 4.914 7.17 7.644 10.535.586.722 1.329 1.873 2.157 2.295l.04-.034c-.002-.233-.021-.292.109-.494.344-.143.709-.265 1.002-.5l.061-.16c-.178-.314-.624-.443-.944-.584.522-.475 1.451-1.239 1.629-1.95l-.053-.132c-.216-.068-.474.008-.65-.104.109-.671 1.574-1.376 1.143-2.128.612-1 1.205-1.922 1.722-2.98.311.587 1.262 2.106 1.259 2.715l-.137.255c.236.461.942.827 1.394 1.025l.035.07c-.332.331-.728.59-1.109.861.528.758 1.059 1.171 1.943 1.427-.452.382-.901.757-1.385 1.098.726.589 1.219.882 2.157 1.049-.453.575-.918 1.145-1.324 1.755.534.155 1.08.294 1.604.48-.369.404-.724.737-1.178 1.048.497.508 1.023.941 1.615 1.334-.554.474-1.121.922-1.701 1.363.622.371 1.241.748 1.886 1.077l-1.234.577c1.081.862 2.233 1.579 3.435 2.258.843-.417 2.918-2.043 3.714-1.928l.153.094c.05.267-.027.442-.174.667-.711 1.08-2.114 1.877-3.202 2.535-6.334 3.83-14.509 6.413-21.77 7.746-18.795 3.452-37.351.092-55.739-3.98-10.938-2.422-22.614-5.952-33.823-6.019-4.461-.027-9.057.537-13.397 1.563 1.533-.944 3.087-1.692 4.829-2.177 11.266-3.136 29.294 1.718 40.653 4.42 11.185 2.66 22.546 5.015 34.03 5.903 1.292.099 3.6.409 4.796.231 1.182.189 2.464.082 3.658.061-.676-.152-1.398-.135-2.088-.181l-2.722-.224c-2.037-.314-4.098-.475-6.138-.798-6.455-1.009-12.859-2.324-19.19-3.939-4.193-1.039-8.366-2.152-12.519-3.338l-14.939-4.355c-10.667-3.044-21.559-5.849-32.747-5.294-1.732.086-3.582.127-5.277.507.99-.558 1.979-1.082 3.05-1.471 4.428-1.608 9.716-1.588 14.356-1.097l.513-1.13c-5.902-1.61-12.201-2.651-18.331-2.682-1.351-.007-2.717-.004-4.052.222.662-.37 1.577-.555 2.313-.711 4.683-.992 9.437-.302 14.118.304a278.37 278.37 0 0 0 10.193-7.331c.108.607.187 1.211.248 1.825-.64.64-1.447 1.156-2.178 1.69-1.904 1.389-3.988 2.707-5.767 4.244 1.446.335 2.886.695 4.319 1.08 1.076-2.047 2.07-3.748 3.842-5.288.259-.849.591-1.685.686-2.574.113-1.06.03-2.108.248-3.164.247-1.2.836-2.401 1.295-3.538a10.96 10.96 0 0 0-1.281-.052c-1.005.832-1.757 1.956-2.738 2.822-.419.371-1.207 1.031-1.8.924-.196-.036-.364-.172-.472-.334-.788-1.183.153-4.611.441-5.953l-.537-.449c-.042-2.15 1.446-5.188 2.453-7.109.586-1.117 1.354-2.657 2.479-3.304.422-.243.939-.365 1.402-.509.048-.263.095-.53.168-.787.172-.603.565-1.16 1.124-1.459.676-.361 1.514-.279 2.218-.049.907.296 1.699.887 2.125 1.75.011.489-.294 1.798-.142 2.155.33.773 2.362.801 3.323 2.848-.721-.372-1.553-.885-2.376-.962a1.81 1.81 0 0 0-1.433.452c-1.463 1.229-3.612 5.46-3.78 7.417 1.131-1.468 1.713-3.572 2.609-5.224.549-1.013 1.194-2.065 2.356-2.414.181.034.361.071.537.128 3.775 1.214 1.722 3.794 3.447 5.786.518.598 2.499 1.986 3.232 2.393.824.458 1.66.676 2.304 1.418.12.138.232.289.307.457.114.254.14.56.038.822-.228.583-.913.834-1.446 1.055.041.46.208 1.497-.084 1.869-.068.087-.154.055-.255.058-.418-.357-.047-1.527-.903-2.521-1.506-1.749-4.16-2.201-5.449-3.744-1.085-1.297-1.577-3.121-2.45-4.575.425 1.722 1.386 3.151 1.991 4.79-.501.911-.897 1.886-1.318 2.837.407.292.875.572 1.082 1.049.1.23.097.402-.003.635-.102.08-.144.143-.28.152-.206.014-.354-.062-.496-.205-.443-.447-.391-1.083-.384-1.662-1.131-1.223-2.703-1.868-4.169-2.598 1.087.989 2.343 1.654 3.555 2.47.151.677.287 1.354.51 2.012.686 2.028 2.364 5.308 2.156 7.414-.092.932-.841 1.799-1.223 2.637-.275.602-1.676 4.374-1.53 4.848.048.158.23.295.377.356.801.327 2.008-.289 2.755-.608-.354 1.039-.889 1.615-1.732 2.281a39.4 39.4 0 0 1 3.052.877c-.66-2.746-1.64-5.383-1.42-8.268.09-1.176.663-2.286.634-3.475-.023-.933-.468-1.404-1.106-2.021.382-1.629 1.103-3.082 1.885-4.547-.192-.38-.385-.775-.369-1.212.017-.464.274-.756.602-1.054.784.235 1.422.672 2.038 1.198-1.64 1.472-2.495 3.54-3.165 5.592.316.477.774 1.029.841 1.615.139 1.222-.33 2.395-.474 3.595-.287 2.398.561 6.651 1.526 8.863 2.377.756 4.788 1.392 7.177 2.109l12.499 3.82c18.755 5.67 38.385 11.246 58.142 8.063 1.838-.296 3.634-.724 5.442-1.158-2.057-.089-4.044-.111-6.094-.384-5.893-.784-11.64-2.448-17.508-3.39-1.275-.204-2.576-.386-3.865-.465-.958-.059-2.106.084-3.025-.186a.51.51 0 0 1-.376-.276c-.008-1.117 3.092-1.853 3.653-3.003.128-.263.143-.534.033-.805-.156-.385-.504-.679-.847-.893-1.889-1.176-4.834-.461-6.984-.516-.528-.014-1.135-.032-1.619-.26-.263-.123-.44-.293-.53-.576-.339-1.072 1.382-2.693 1.919-3.537.486-.764.778-1.603.551-2.509-.175-.7-.597-1.326-1.23-1.686-2.047-1.165-4.375.552-6.362 1.056 1.419-1.575 2.74-3.602 2.782-5.795.056-2.878-1.936-6.033-3.866-8.021-.203.681-.451 1.42-.846 2.015-.754 1.136-2.316 2.076-3.3 3.104-3.568 3.728-3.405 6.041-9.18 7.189 1.444-.857 2.939-1.818 3.995-3.145 1.375-1.73 1.355-3.834 1.867-5.89a18.57 18.57 0 0 1 1.417-3.776c.902-1.827 1.923-3.606 2.895-5.398.589-1.086 1.282-2.244 1.659-3.422.148-.464.19-.883.13-1.366-.243-1.957-1.369-4.13-2.043-5.988-.359-.99-.612-2.033-1.011-3.006-.119-.29-.271-.748-.52-.946l-.121.066c-.4 1.204 2.342 6.352 2.696 8.03.616 2.925-1.78 5.707-3.769 7.542-1.44 1.328-3.079 2.464-4.278 4.034-1.394 1.825-1.982 4.107-3.619 5.777-2.016 2.056-4.615 3.431-6.508 5.632-1.305 1.517-1.95 3.432-3.034 5.089-1.185 1.813-2.628 2.568-4.716 3.001 4.636-2.782 3.86-5.576 6.602-9.351 1.542-2.122 3.795-3.54 5.532-5.483 1.713-1.915 2.448-4.452 4.09-6.412 1.563-1.865 4.081-3.214 5.093-5.485.867-1.946-.108-4.496-.828-6.359 1.302 1.638 2.539 3.327 3.706 5.064.214-.571.416-1.14.588-1.725-.198-.749-.416-1.486-.703-2.207-.796-2-2.403-5.01-2.447-7.117-.019-.903.246-1.781.359-2.671.134-1.065.172-2.158.241-3.23.791 1.486 1.327 3.1 2.038 4.624.576 1.237 1.296 2.368 2.097 3.468-.533-2.303-1.473-4.559-2.392-6.73.598.405 1.193.812 1.757 1.263 2.141 1.711 3.331 4.213 5.266 6.12 1.726 1.701 4.482 3.102 5.907 4.73-1.575-1.121-3.879-2.263-5.741-2.725.935 3.623 5.733 6.743 8.638 8.869 1.007.737 2.1 1.487 2.974 2.381l-.01.063c-.513-.298-1.054-.536-1.576-.815-1.012-.541-2.018-1.128-3.009-1.708-1.428-.835-2.788-1.819-4.278-2.543l-.084-.04c1.947 1.588 3.871 3.146 5.91 4.617 3.371 2.43 6.457 4.154 9.15 7.418-1.64-1.261-6.182-4.23-8.081-4.926-.292-.107-.598-.229-.893-.074-.163.086-.237.256-.274.428-.173.793.425 2.086.874 2.731.454.653 1.025 1.241 1.527 1.858.453.559.867 1.155 1.292 1.735 3.128 4.258 3.622 5.227 8.976 6.17-4.494 1.274-6.345-1.834-9.961-3.471-.248-.112-.614-.301-.884-.198-.037.104-.049.074-.003.171.322.687 1.251 1.299 1.839 1.784 1.921 1.586 3.848 3.08 5.981 4.375 1.692 1.026 3.471 1.901 5.176 2.905 1.285.756 2.924 1.949 4.246 2.484l-4.583-.075c2.156 1.917 4.754 3.343 6.877 5.241 2.088 1.867 3.289 4.52 5.994 5.709 1.187.523 4.329 1.504 5.571 1.461 2.449-.083 7.638-2.729 10.102-3.693-1.586-1.084-3.326-1.88-4.996-2.82a30.61 30.61 0 0 1-8.415-6.96c1.289.936 2.58 1.893 3.909 2.773.897.641 2.347 1.546 3.363 1.961-.034-.1-2.407-1.935-2.703-2.178-3.173-3.022-5.889-6.574-8.37-10.177-.797-1.157-1.54-2.351-2.334-3.511-.743-1.087-1.543-2.135-2.294-3.216-.809-1.166-1.458-2.446-2.334-3.566-.785-1.002-2.125-1.128-3.075-1.906-1.27-1.038-2.207-2.532-3.246-3.792-1.563 1.126-2.951 2.523-4.555 3.579.166-.637.342-1.273.476-1.918-1.055-1.53-2.233-2.972-3.521-4.312-.017.767-.03 1.529.005 2.296-1.05-1.854-1.73-5.401-2.928-6.681-1.033-1.102-3.418-1.704-4.799-2.348-1.132-.528-2.293-1.168-3.319-1.886-1.645-1.151-3.249-2.495-4.583-3.998-.662-.746-1.212-1.62-1.939-2.302s-1.694-1.081-2.491-1.68c-.924-.694-1.722-1.534-2.62-2.253-2.161 1.854-6.332 6.086-7.784 8.427l-1.541-.965c-.703.844-1.435 1.91-2.333 2.546-.919.651-2.077.853-3.042 1.424-.765.452-1.488.987-2.178 1.546-.954.772-4.783 4.177-4.691 5.258.019.22.07.445.113.661-.577-.526-1.055-1.132-1.541-1.739-2.003 2.326-3.794 4.807-5.769 7.147-.421-.281-.831-.522-1.297-.72l4.287-5.521c.611-.753 1.248-1.698 2.023-2.28.154-.116.379-.18.568-.204.429-.056.82.171 1.18.372 1.794-2.164 4.079-4.477 6.534-5.874.994-.566 2.176-.847 3.1-1.525.857-.63 1.834-2.565 2.788-2.667.495-.053 1.03.145 1.474.344 1.71-2.017 3.524-3.912 5.331-5.839.821-.876 1.605-1.85 2.476-2.671zm-46.578 43.125c.293.474.597.945.844 1.446.62.179 1.123.354 1.645.752l1.159.753c.789-1.869 1.347-3.802 2.095-5.676.312-.78.754-1.484 1.108-2.24-.188-1.267-1.337-4.31-2.351-5.142.06.828.288 1.644.517 2.439-.195.317-.391.632-.518.983-.214.59-.597 2.895-1.212 3.094-.019.006-.155.031-.17.034-.651.132-2.567 2.88-3.117 3.557zm49.831-14.202c.218-.622.338-1.311.495-1.953-.313.611-.605 1.235-.907 1.851l-.357.754c-.569 1.132-1.018 2.319-1.339 3.544.688-1.076 1.36-2.145 1.817-3.345.117-.271.197-.57.29-.851zm-52.11-6.016c.602-.76.919-1.772 1.304-2.653a38.84 38.84 0 0 1 1.01-2.11c.521-1.01 1.213-1.944 1.662-2.986l-.024-.196c-.968 1.026-4.079 6.414-4.017 7.705.006.134.009.104.065.24zm2.952 4.744c-1.338-.267-1.616-.169-2.516-1.281-.184-.227-.357-.486-.595-.658-.263 1.141-1.045 3.787-.655 4.84.139.13.165.175.369.154.482-.049 1.153-.831 1.47-1.166.63-.642 1.307-1.242 1.928-1.889z"/><path d="M79.848 106.688c.321-1.225.77-2.412 1.339-3.544.201.158.215.212.478.199-.457 1.2-1.129 2.269-1.817 3.345zm1.696-4.298l.907-1.851-.495 1.953-.222.037-.189-.139zm14.988-75.524c1.629-.119 3.137.06 4.616.79 1.93.954 3.411 2.786 4.076 4.825.715 2.191.444 4.466-.617 6.5-1.279 2.453-3.581 4.235-6.213 5.034-5.223 1.586-9.992-.778-14.475-3.2-.525.726-1.061 1.439-1.715 2.055a7.93 7.93 0 0 1-8.324 1.556c-2.287-.897-4.387-2.71-6.28-4.249l-6.99-5.625c-1.702-1.321-3.402-2.676-5.314-3.687-1.488-.786-3.123-1.427-4.825-1.464-2.566-.055-5.065 1.051-6.892 2.821-3.548 3.436-3.703 7.694-3.764 12.294-1.143-.722-2.199-1.534-3.405-2.163-1.984-1.035-4.516-1.83-6.738-1.11-1.168.379-2.22 1.132-2.773 2.252-.442.896-.532 1.909-.174 2.847.304.797.902 1.557 1.698 1.905.622.272 1.346.296 1.971.023.599-.257 1.063-.752 1.283-1.365.19-.538.198-1.151-.065-1.666-.343-.672-.913-.931-1.592-1.132-1.189.404-2.031 1.135-2.956 1.952l.014-.064c.216-.923.626-1.817 1.479-2.314a2.87 2.87 0 0 1 2.113-.278c.698.192 1.249.694 1.579 1.33a3.2 3.2 0 0 1 .18 2.485 3.17 3.17 0 0 1-1.627 1.839c-.9.442-2.037.456-2.972.111-1.251-.462-1.967-1.454-2.493-2.62-2.115 1.045-4.715 2.056-7.024 2.589-2.913.672-5.668.493-8.23-1.138-1.984-1.264-3.478-3.217-3.981-5.532-.487-2.239.017-4.515 1.251-6.428 1.106-1.717 2.804-3.129 4.834-3.561 1.494-.318 3.506-.118 4.795.737 1.537 1.02 2.594 2.384 2.958 4.216a7.17 7.17 0 0 1-1.073 5.469c-.71 1.043-1.756 1.901-3.03 2.11a3.82 3.82 0 0 1-2.899-.708c-.749-.563-1.188-1.424-1.287-2.35-.134-1.256.609-2.349 1.369-3.269-.264.538-.472 1.07-.669 1.637-.095.609-.154 1.158.008 1.766.209.785.74 1.332 1.441 1.713.707.383 1.484.515 2.259.265 1.027-.331 1.794-1.212 2.262-2.155a5.76 5.76 0 0 0 .297-4.446c-.464-1.323-1.355-2.334-2.628-2.931-1.279-.6-2.862-.612-4.179-.121-1.547.576-2.747 1.854-3.416 3.344-.765 1.704-.854 3.564-.183 5.311.692 1.8 2.05 3.129 3.804 3.904 4.188 1.849 9.008-.483 12.955-1.991.079-1.008.434-2.073 1.034-2.892.97-1.326 2.491-2.065 4.091-2.298 3.054-.444 6.14.742 8.557 2.548-.082-2.821.236-5.667 1.587-8.189a11.81 11.81 0 0 1 7.006-5.739c6.481-1.895 11.393 3.372 16.044 6.961 1.744 1.345 3.588 2.576 5.4 3.825 1.475 1.017 2.919 2.102 4.493 2.963 1.682.92 3.47 1.358 5.35.799s3.063-1.867 3.964-3.545c-2.129-.967-4.578-2.51-6.041-4.357-.582-.735-1.06-1.667-.926-2.631.093-.664.471-1.213 1.001-1.612.934-.704 2.172-.872 3.303-.687a5.59 5.59 0 0 1 3.703 2.278c1.453 2.036 1.378 4.472.968 6.824 2.282 1.298 4.827 2.567 7.386 3.208 2.702.676 5.468.538 7.894-.932 1.842-1.116 3.307-2.847 3.812-4.967.417-1.75.059-3.486-.882-5.012-.903-1.466-2.288-2.527-3.973-2.911-1.698-.388-3.628-.076-5.1.865-1.015.649-1.764 1.57-2.026 2.764-.233 1.061-.068 2.187.542 3.098.433.648 1.08 1.2 1.853 1.353l.098.018-.03.053a2.69 2.69 0 0 1-1.985-.51c-.898-.642-1.427-1.655-1.592-2.73-.22-1.434.165-2.845 1.032-4.001 1.207-1.609 3.05-2.391 4.997-2.655zM82.027 38.037l.87.492c.435-1.82.41-3.602-.603-5.236-.599-.966-1.505-1.714-2.634-1.962-.415-.091-.854-.123-1.275-.055-.596.105-1.291.238-1.657.773-.243.355-.261.826-.171 1.235.381 1.735 2.786 3.157 4.201 4.011.419.254.842.502 1.269.742zm-7.365 16.147c.346-.006.623.028.931.201a2.13 2.13 0 0 1 .965 1.201c.3 1.089-.655 2.28-1.156 3.182h.737c.325.014.641.048.868.295l-.046.155c-.574.504-1.343.44-2.053.435-.759 2.076-3.514 6.741-2.876 8.869.114.381.309.584.654.767 1.445.145 1.855-1.92 2.789-2.397.184-.094.214-.093.393-.026.17.254.187.511.125.807-.206.986-1.147 2.158-1.981 2.7-.709.461-1.491.563-2.309.374-.995-.229-1.77-.846-2.296-1.706-.474.551-.957 1.081-1.601 1.438-.719.399-1.508.474-2.292.227-.811-.256-1.523-.837-1.9-1.604-.95-1.931.491-4.355 1.242-6.115.314-.736.564-1.491.814-2.25a5.28 5.28 0 0 0-1.194.743c-1.826 1.477-4.235 4.92-4.712 7.236-.113.551.049 1.189-.014 1.764-.069.115-.121.2-.243.267-.184.102-.39.096-.587.046-.746-.188-1.376-.815-1.759-1.451-.196.252-.398.513-.635.728-.574.521-1.34.777-2.112.706-1.141-.098-2.012-.78-2.705-1.637l-.174.231c-.591.731-1.372 1.399-2.347 1.476-.84.067-1.667-.266-2.282-.83-.921-.845-1.101-1.921-1.151-3.104l-1.74.688c-.443.689-.959 1.312-1.574 1.854-1.118.985-2.41 1.535-3.914 1.424-.954-.07-1.88-.424-2.5-1.18-.751-.916-.857-2.174-.757-3.31.186-2.111 1.341-4.402 2.985-5.753 1.308-1.074 2.713-1.43 4.375-1.266.944.283 1.705.785 2.202 1.656.881 1.543.525 3.193.061 4.797 1.96-1.356 2.314-2.652 3.323-4.687.336-.678.825-1.678 1.606-1.907a.74.74 0 0 1 .627.083c.522.31.832 1.163.984 1.722-.223.78-.619 1.457-.979 2.179l-1.771 3.857c-.176.482-.371 1.18-.107 1.664.126.23.428.421.685.479 1.995.452 4.769-9.262 5.965-9.829.196-.093.402-.085.6-.007.686.271 1.079 1.159 1.36 1.79-.621 2.021-1.86 3.903-2.658 5.867-.182.447-.539 1.284-.285 1.734a.78.78 0 0 0 .455.353c.435.134.847.004 1.175-.296 1.206-1.102 1.947-3.596 2.643-5.094.403-.866.865-1.704 1.256-2.576.235-.525.422-1.626.995-1.854.184-.074.393-.055.576.013.632.235 1.029.802 1.311 1.383a8.46 8.46 0 0 1-.129 1.074c.852-.989 1.951-2.094 3.233-2.485.607-.186 1.272-.134 1.83.181 2.692 1.522-2.107 7.004-1.463 9.118a.87.87 0 0 0 .488.567c.204.092.365.075.57-.006 1.682-.66 2.728-4.835 3.313-6.489a52.18 52.18 0 0 1 1.159-2.927c-.349-.009-.776.015-1.108-.095-.411-.137-.767-.51-.952-.895-.084-.174-.117-.272-.055-.455l.2.069c.368-.067 1.986.265 2.463.332.516-1.375 1.397-3.52 2.462-4.501zM38.91 69.547c1.111-.563 1.652-1.525 2.28-2.55-.171-.356-.428-.804-.241-1.204.08-.171.172-.199.333-.26a5.34 5.34 0 0 1 .43.132c.483-.307.779-1.873.895-2.402.14-.639.356-1.756-.007-2.331-.108-.172-.222-.191-.4-.267-1.451.508-2.629 2.349-3.258 3.664-.545 1.139-1.394 3.27-.949 4.534.079.223.235.458.445.577.144.081.312.092.472.106zM23.473 59.519l-4.617 8.687c-.185.425-.834 2.98-.903 3.049a1.07 1.07 0 0 1-.267.13c-.346.084-.727-.108-.997-.31-.515-.387-.875-.924-.939-1.571-.082-.838.068-1.679.331-2.474.955-2.883 5.601-10.722 7.536-12.976.217-.253.465-.538.81-.597.45-.077 1.043.273 1.365.552.598.518.966 1.077 1.002 1.876.064 1.438-.371 2.997-.643 4.403a151.5 151.5 0 0 0-.927 5.107c1.435-1.901 7.588-11.384 9.424-11.625.346-.045.683.106.946.319.552.447.901 1.104 1.095 1.775-.366 1.116-.986 2.154-1.464 3.227-1.171 2.63-2.378 5.381-3.197 8.139-.258.868-.559 1.898-.379 2.808.052.265.398.729.18.941-.031.03-.061.061-.097.085-.242.162-.549.109-.807.027-.621-.197-1.112-.526-1.409-1.122-1.074-2.155.899-6.431 1.563-8.588l.523-1.265a35.03 35.03 0 0 1-.807 1.136c-1.165 1.666-2.325 3.329-3.413 5.047-.635 1.002-1.196 2.156-1.925 3.085-.18.23-.319.391-.622.431-.409.055-.947-.121-1.257-.387-.686-.589-.847-1.583-.885-2.439-.113-2.543.473-4.966.779-7.468zm51.685 28.13c.129.523-.241 1.372-.399 1.872-.376 1.19-.743 2.365-1.37 3.454-.988 1.715-2.422 3.135-3.413 4.851-.62 1.072-1.002 2.284-1.47 3.427-1.653 4.037-6.31 8.582-10.317 10.263 2.324-1.717 6.748-7.582 7.959-10.35-1.671 2.351-3.869 4.464-6.733 5.19 3.32-2.573 5.021-4.82 6.608-8.705-2.504 3.176-5.586 5.918-8.254 8.96-2.075 2.366-3.225 4.237-4.899 6.855-.189.275-.398.536-.606.797-1.83 2.306-4.057 4.32-7.08 4.671 3.999-3.181 5.738-5.532 8.356-9.842-1.9 1.641-3.631 3.534-5.397 5.317 1.108-2.039 2.222-4.208 3.965-5.788 1.268-1.149 2.989-1.894 3.95-3.362 1.19-1.818 1.435-4.141 2.294-6.124.056.548.017 1.338.453 1.72.439.074.755-.199 1.082-.471 2.469-2.057 2.176-5.774 3.648-8.395.552-.982 1.396-1.701 2.312-2.331a78.88 78.88 0 0 0-1.087 4.908c.576.067 1.124.158 1.705.111 2.22-.18 3.567-1.951 4.895-3.531-.159.639-.207 1.295-.271 1.95 1.429-1.786 2.784-3.554 4.066-5.447zm20.824-34.016c.972-.064 1.916-.05 2.875.136 1.582.307 3.136 1.026 4.047 2.408.562.851.824 1.88.59 2.886-.349 1.503-1.542 2.372-2.778 3.136l.084.033c.916.37 1.702.992 2.075 1.933.366.922.166 1.907-.242 2.776-.909 1.936-2.71 3.217-4.691 3.909-2.602.908-6.113.931-8.623-.287-1.011-.49-2.028-1.325-2.384-2.425-.125-.386-.237-1.129.011-1.491.111-.162.154-.165.334-.194.491.191 1.026.979 1.451 1.344 1.374 1.181 2.99 1.645 4.787 1.509 2.001-.15 4.307-.854 5.649-2.435.557-.657.963-1.508.87-2.388-.055-.513-.283-.934-.696-1.247-1.187-.899-2.726-.609-4.076-.389l-1.726 4.38c-.118.429-.273.958-.658 1.224-.268.186-.573.181-.882.12-.394-.078-.733-.263-.951-.608-.383-.607-.357-1.485-.207-2.159.278-1.245 2.893-7.467 3.555-8.549.203-.332.456-.658.794-.86.459-.275 1.093-.405 1.616-.267.269.071.513.221.636.479.106.223.101.476.053.714-.241 1.21-1.315 3.024-1.779 4.327 1.424-.304 2.912-.684 4.08-1.602.606-.477 1.091-1.123 1.168-1.91.062-.636-.178-1.24-.601-1.71-.621-.689-1.553-1.027-2.464-1.067-2.14-.093-4.39 1.064-5.931 2.476-1.295 1.187-2.806 3.099-3.04 4.902-.06.462.13.894.081 1.319-.019.167-.076.186-.198.283-.32.035-.534-.089-.784-.277-.718-.54-1.203-1.479-1.327-2.357-.21-1.481.396-2.888 1.272-4.05 1.932-2.563 4.948-3.594 8.008-4.024zm13.005-.188c.279-.008.528.007.791.115.462.191.871.547 1.048 1.023.125.335.122.677.033 1.019-.303 1.166-1.085 2.355-1.641 3.424l-1.79 3.719c-.642 1.467-1.982 4.545-1.339 6.05.081.191.273.496.48.561.239.075.511.004.725-.113 1.681-.917 1.949-2.759 2.467-4.407.395-1.259 1.703-4.791 2.824-5.318a.94.94 0 0 1 .728-.04c.689.251 1.059 1.101 1.342 1.723-.937 1.773-2.445 4.545-2.792 6.483-.076.423-.194 1.113.112 1.461.154.174.369.207.589.187 1.909-.174 2.082-2.568 2.983-3.528.289-.309.757-.553 1.186-.551.284.001.438.101.622.298.164.528-.251 1.132-.408 1.636-.166.534-.196 1.195.091 1.695.304.531.937.781 1.497.942.537-.099 1.074-.24 1.441-.68 1.327-1.595-2.398-5.321-2.613-7.423-.096-.949.24-1.631.82-2.343.786-.755 1.779-1.15 2.864-1.192.945-.036 2.244.285 2.948.969a2.43 2.43 0 0 1 .737 1.732c.009.648-.216 1.499-.702 1.956-.203.192-.472.299-.754.275-.256-.022-.592-.162-.742-.381-.255-.376.246-.916.413-1.267.115-.24.172-.517.235-.775-.05-.181-.096-.385-.175-.556a1.13 1.13 0 0 0-.655-.573c-.279-.084-.579-.02-.832.113-.625.327-.865.888-1.064 1.52.236.567.51 1.13.858 1.637 1.058 1.54 2.61 2.918 2.354 4.976a3.51 3.51 0 0 1-1.363 2.371c-1.121.868-2.679 1.13-4.059.921-1.352-.205-2.326-.879-3.133-1.963-.344.453-.731.867-1.205 1.185-.66.442-1.443.657-2.231.488-1.021-.219-1.72-.942-2.257-1.788a8.97 8.97 0 0 1-.831 1.032c-.487.516-1.096.858-1.819.861-.888.004-1.78-.461-2.388-1.1-.714-.749-.964-1.769-.955-2.777.01-1.196.275-2.405.627-3.544.627-2.026 3.578-8.737 4.933-10.055zm27.507-21.05c1.326-.19 2.887.138 4.075.734 1.941.974 3.443 2.986 4.109 5.024a8.06 8.06 0 0 1-.511 6.319c-1.18 2.263-3.302 3.956-5.731 4.706-4.408 1.362-9.253-.998-13.099-3.017a13.02 13.02 0 0 1-.438 1.078c-.515 1.102-1.437 2.077-2.599 2.486-.906.32-2.046.312-2.913-.11a3.1 3.1 0 0 1-1.586-1.885 3.31 3.31 0 0 1 .236-2.526 3.2 3.2 0 0 1 1.973-1.582c1.585-.445 2.979.234 4.324.992-.108-.681-.293-1.375-.706-1.94-2.046-2.804-6.51-1.48-9.269-.809-.407.099-1.181.404-1.568.345.247-.227.802-.397 1.124-.545 2.102-.97 4.419-1.963 6.779-1.857 1.626.073 2.775.642 3.859 1.837.645.888.861 1.845 1.179 2.874 3.279 1.873 8.44 3.881 12.177 2.87a7.34 7.34 0 0 0 4.483-3.451c.885-1.557 1.147-3.294.661-5.026-.488-1.741-1.632-3.321-3.233-4.192a5.4 5.4 0 0 0-4.217-.425c-1.346.412-2.407 1.309-3.063 2.551a5.81 5.81 0 0 0-.415 4.39c.341 1.085 1.07 2.11 2.104 2.626.746.372 1.588.392 2.37.119.734-.257 1.352-.768 1.672-1.485.534-1.198.055-2.362-.364-3.49l.068.004c.526.551.938 1.428 1.059 2.176.138.86-.037 1.755-.558 2.462-.564.767-1.438 1.247-2.375 1.381-1.135.163-2.186-.157-3.086-.843-1.264-.965-2.089-2.524-2.279-4.093-.229-1.888.213-3.786 1.408-5.284 1.125-1.41 2.559-2.216 4.35-2.411zm-14.777 16.381c1.425-.627 2.002-1.683 2.538-3.069l.024-.063c-1.027-.534-2.089-1.034-3.266-1.085-.763.07-1.441.243-1.96.856a2.1 2.1 0 0 0-.481 1.552 2.16 2.16 0 0 0 .81 1.489c.545.429 1.197.519 1.866.412a8.73 8.73 0 0 0 .469-.093zm-8.544-4.221c-.009.09-.05.125-.128.178-.624.423-1.476.734-2.177 1.009-4.049 1.587-8.474 2.525-12.79 3.016-6.332.72-12.693.693-19.054.726l-24.159.007-12.146-.016a120.17 120.17 0 0 1-4.818-.092c-.797-.03-1.629-.021-2.413-.166-.044-.062-.089-.123-.128-.188-.126-.207-.114-.358-.058-.585.453-.642 2.758-.46 3.546-.469l31.996-.176c11.564-.004 23.253.547 34.698-1.462 2.582-.453 5.106-1.09 7.631-1.782zm-3.324 54.339c.739 1.059 1.708 2.3 2.815 2.984.724.447 1.656.726 2.229 1.379.884 1.007 1.315 2.412 1.873 3.613.427.917.898 1.779 1.449 2.628L115 107.133c.612 2.602 2.011 4.413 3.642 6.457l-.177.203c-.881-.541-1.689-1.11-2.468-1.79.788 3.434 3.967 5.479 6.316 7.848 1.023 1.032 1.859 2.098 2.61 3.338a17.8 17.8 0 0 0-2.976-2.188c-1.943-1.134-4.019-2.015-5.715-3.532-1.553-1.389-2.272-3.414-3.667-4.918-.204-.219-.449-.388-.748-.436-.93-.152-2.092.222-3.029.328-.693.078-1.383.065-2.078.042.714-.374 1.385-.868 1.981-1.409 1.892-1.715 2.38-3.078 2.5-5.567-1.016.737-1.892 1.65-2.586 2.696.487-2.355 1.266-4.093 3.161-5.607-.717-1.202-1.49-2.36-1.917-3.704zm20.658-40.619c.817-.042 1.582-.012 2.35.304.701.289 1.216.753 1.501 1.463a2.67 2.67 0 0 1-.028 2.08c-.171.395-.468.799-.892.942a1.11 1.11 0 0 1-.86-.088c-.217-.116-.328-.181-.41-.41.101-.467.471-.825.671-1.254.159-.342.245-.759.1-1.122-.092-.232-.296-.395-.524-.484-.374-.145-.83-.118-1.194.043-.476.21-.705.609-.881 1.076l-.036.097c.485 2.348 3.147 4.018 3.098 6.459-.021 1.025-.556 1.973-1.298 2.657-1.226 1.129-2.643 1.164-4.21 1.102-.844-.188-1.608-.421-2.267-1.019a3.26 3.26 0 0 1-1.076-2.394c-.012-.737.216-1.542.766-2.06.287-.27.671-.45 1.071-.42.271.02.549.129.731.333.172.515-.557 1.499-.694 2.081l.071.334c.155.653.536 1.27 1.13 1.608.385.219.835.291 1.26.153.592-.191.91-.675 1.163-1.205-.269-2.73-2.5-4.319-2.818-6.591-.116-.825.119-1.758.637-2.415.644-.817 1.65-1.136 2.639-1.27zM51.927 34.08c1.208-.092 2.303.121 3.418.584 3.56 1.477 8.196 5.456 11.039 8.151.322.305 1.197 1.04 1.336 1.382-.675-.297-1.369-.851-1.994-1.265-1.802-1.193-3.557-2.465-5.327-3.706-1.809-1.267-3.748-2.722-5.84-3.474-.867-.312-1.696-.449-2.613-.302l-.107.018c-.811.228-1.521.65-2.036 1.33a3.62 3.62 0 0 0-.68 2.686c.173 1.193.947 2.27 1.909 2.968.829.602 1.867.972 2.897.786 1.771-.32 2.951-1.869 3.945-3.238-.215.671-.458 1.325-.806 1.94-.631 1.118-1.613 2.056-2.884 2.377-1.292.326-2.648-.026-3.754-.723-1.275-.803-2.306-2.054-2.622-3.549-.277-1.308.014-2.798.77-3.902.776-1.132 2.033-1.795 3.35-2.063zm-7.968 49.043c2.459.16 3.294 1.888 5.482 2.39-.23.194-.493.447-.771.565-.454.192-1.181.22-1.55.551-.158.142-.217.254-.224.467-.012.355.233.631.447.884-.905 1.044-1.649 1.705-2.916 2.27l-.179 1.311-.081 1.4c-.203-.251-.354-1.839-.562-2.366-.285-.718-.689-1.05-1.372-1.337-.436.042-.888.201-1.314.045-.102-.139-.09-.137-.071-.311.117-.119.066-.095.205-.145.272-.098.522-.146.678-.418.443-.776-.284-2.434-.502-3.24.091-.177.193-.348.307-.511.58-.839 1.424-1.372 2.424-1.555zM75.301 12.14l.25.145.404 4.899c.813-.751 1.686-1.352 2.655-1.885-.632 1.006-1.383 1.827-2.23 2.655 1.476-.027 2.963.113 4.434.219l-.061.311-3.961.418c.633.865 1.368 1.652 1.921 2.574-.99-.647-1.912-1.335-2.826-2.086l-.292 5.683-.163.041-.459-5.633c-.748.667-1.509 1.285-2.411 1.728.411-.926 1.071-1.601 1.768-2.314l-4.499-.419c.163-.189.298-.069.432-.274 1.323-.287 2.819-.227 4.168-.256-.748-.866-1.476-1.656-2.076-2.637.971.521 1.793 1.245 2.622 1.96.228-1.687.115-3.429.326-5.129zm37.794 18.555c.112-.848.083-1.729.13-2.584.028-.498.12-.969.164-1.459.034-.384-.036-.896.105-1.251.458.995.378 4.174.38 5.394.779-.639 1.563-1.2 2.441-1.697l-.05.081c-.458.753-1.029 1.439-1.595 2.113 1.302.038 2.596.183 3.89.317.012.117.034.216.005.332-1.365.232-2.766.181-4.139.363.734.712 1.302 1.46 1.939 2.248-.886-.525-1.712-1.088-2.486-1.769l-.243 4.533-.193.246c-.375-1.499-.327-3.203-.379-4.747-.754.726-1.618 1.283-2.545 1.761l1.952-2.338-5.231-.43c1.725-.244 3.464-.381 5.207-.411-.689-.682-1.232-1.566-1.817-2.34.742.626 1.683 1.038 2.465 1.638zM85.78 105.844l.125.079c1.027.75 2.379 4.259 2.49 5.542.171 1.981-.952 3.742-2.599 4.769-.66.411-1.513.757-2.004 1.375-.484.608-.43 1.246-.332 1.967.045.148.051.079 0 .207-.344-.125-.657-.728-.803-1.052-.929-2.066 1.648-2.912 2.831-3.887a4.64 4.64 0 0 0 1.364-1.831c.965-2.353-.169-4.973-1.072-7.169zm29.058-51.651a2.44 2.44 0 0 1 .769.082 1.81 1.81 0 0 1 1.132.917c.296.566.325 1.253.131 1.856-.251.777-.771 1.303-1.489 1.66l-.32-.042c-.582-.113-1.212-.498-1.541-.996-.31-.472-.408-1.052-.272-1.6.22-.892.835-1.428 1.59-1.877zM33.622 29.012c.168.112.217.258.306.432.748 1.476 1.159 1.881 2.728 2.465-1.379.798-2.315 1.452-2.899 3.002-.213-.198-.348-.555-.475-.819-.577-1.195-1.4-1.586-2.539-2.17 1.726-.689 2.097-1.342 2.879-2.909zm54.338-6.339c.697 1.071.735 1.392 1.981 1.887l-.466.176c-.822.335-1.178.927-1.511 1.709-.501-1.099-.956-1.457-2.071-1.891l.203-.071c1.04-.371 1.4-.839 1.864-1.81zm-26.864-2.191c.067.07.104.174.145.262.402.858.752 1.153 1.567 1.589-.883.574-1.273.917-1.693 1.896-.623-1.15-.659-1.331-1.896-1.896.973-.436 1.435-.892 1.877-1.851zm42.092 2.263c.708.568.43.964 1.675 1.598-.904.388-1.233.702-1.67 1.562-.253-.235-.496-.896-.697-1.22l-.937-.28c.872-.424 1.25-.782 1.629-1.66zm27.745 100.776l2.703 2.178c-1.016-.415-2.466-1.32-3.363-1.961l.136-.11a1.09 1.09 0 0 0 .524-.107zm-29.06 15.166c-.241-.203-.836.012-1.155-.087-.33-.102-.755-.01-1.047-.182.058-.071.748-.026.902-.05l.148-.025 2.722.224c.69.046 1.412.029 2.088.181-1.194.021-2.476.128-3.658-.061z"/><path d="M68.554 18.359c.552-.054 1.159-.198 1.708-.158-.134.205-.269.085-.432.274l-1.276-.116zm12.261-.186l1.463.169c-.506.09-1.012.114-1.524.143l.061-.311zM118.56 31.61l1.358.158-1.353.174c.029-.115.007-.215-.005-.332zM31.603 60.114l-.523 1.265-.284-.129.807-1.136zM75.301 12.14c.03-.186.065-.361.116-.543l.135.688-.25-.145zm38.142 25.422l.193-.246c-.013.297-.024.559-.115.843-.088-.105-.07-.456-.078-.598zm5.199 76.028c.111.123.287.249.291.416-.174-.055-.311-.12-.468-.213l.177-.203zM75.431 25.113l.163-.041c-.009.235-.003.437-.116.65-.087-.192-.055-.403-.047-.609z"/></svg>