<svg width="22" height="17" viewBox="0 0 22 17" fill="none" xmlns="http://www.w3.org/2000/svg">
<path d="M1.24996 0.916687C0.65165 0.916687 0.166626 1.40171 0.166626 2.00002C0.166626 2.59833 0.651651 3.08335 1.24996 3.08335H20.75C21.3483 3.08335 21.8333 2.59833 21.8333 2.00002C21.8333 1.40171 21.3483 0.916687 20.75 0.916687H1.24996ZM1.24996 7.41669C0.65165 7.41669 0.166626 7.90171 0.166626 8.50002C0.166626 9.09833 0.651651 9.58335 1.24996 9.58335H20.75C21.3483 9.58335 21.8333 9.09833 21.8333 8.50002C21.8333 7.90171 21.3483 7.41669 20.75 7.41669H1.24996ZM1.24996 13.9167C0.65165 13.9167 0.166626 14.4017 0.166626 15C0.166626 15.5983 0.651651 16.0834 1.24996 16.0834H20.75C21.3483 16.0834 21.8333 15.5983 21.8333 15C21.8333 14.4017 21.3483 13.9167 20.75 13.9167H1.24996Z" fill="#FAFAFA"/>
</svg>
